PathFileType	4	(X/Y/Z)	C:\Git\research_data\torsion_deformities_healthy_kinematics\simulations\P01\post\Stand01\marker_experimental_HJC.trc
DataRate	CameraRate	NumFrames	NumMarkers	Units	OrigDataRate	OrigDataStartFrame	OrigNumFrames
150	150	2	231	mm	150	1	150
Frame#	Time	LFHD			LBHD			RFHD			RBHD			C7			T10			CLAV			STRN			RBAK			LSHO			LUPA			LELB			LFRA			LWRB			LWRA			LFIN			RSHO			RUPA			RELB			RFRA			RWRB			RWRA			RFIN			SACR			LASI			RASI			LT1			LT2			LT3			LS1			LS2			LS3			LHEE			LTOE			RT1			RT2			RT3			RS1			RS2			RS3			RHEE			RTOE			PELO			PELA			PELL			PELP			SACO			SACA			SACL			SACP			LFEO			LFEA			LFEL			LFEP			RFEO			RFEA			RFEL			RFEP			LTIO			LTIA			LTIL			LTIP			RTIO			RTIA			RTIL			RTIP			LFOO			LFOA			LFOL			LFOP			RFOO			RFOA			RFOL			RFOP			LTOO			LTOA			LTOL			LTOP			RTOO			RTOA			RTOL			RTOP			HEDO			HEDA			HEDL			HEDP			LCLO			LCLA			LCLL			LCLP			RCLO			RCLA			RCLL			RCLP			TRXO			TRXA			TRXL			TRXP			LHUO			LHUA			LHUL			LHUP			LRAO			LRAA			LRAL			LRAP			LHNO			LHNA			LHNL			LHNP			RHUO			RHUA			RHUL			RHUP			RRAO			RRAA			RRAL			RRAP			RHNO			RHNA			RHNL			RHNP			LPelvisAngles			RPelvisAngles			LFootProgressAngles			RFootProgressAngles			LHipAngles			RHipAngles			LKneeAngles			RKneeAngles			LAnkleAngles			RAnkleAngles			LFFootAngles			RFFootAngles			LAbsAnkleAngle			RAbsAnkleAngle			RNeckAngles			LNeckAngles			RSpineAngles			LSpineAngles			LShoulderAngles			LElbowAngles			LWristAngles			RShoulderAngles			RElbowAngles			RWristAngles			RThoraxAngles			LThoraxAngles			RHeadAngles			LHeadAngles			LHipPower			LKneePower			LAnklePower			RHipPower			RKneePower			RAnklePower			LWaistPower			RWaistPower			LNeckPower			RNeckPower			LShoulderPower			RShoulderPower			LElbowPower			RElbowPower			LWristPower			RWristPower			F_ForcePlate1			F_ForcePlate2			F_ForcePlate3			LGRF			RGRF			LHipForce			RHipForce			LKneeForce			RKneeForce			LAnkleForce			RAnkleForce			LWaistForce			RWaistForce			LNeckForce			RNeckForce			LShoulderForce			RShoulderForce			LElbowForce			RElbowForce			LWristForce			RWristForce			LNormalisedGRF			RNormalisedGRF			LGroundReactionForce			RGroundReactionForce			LHipMoment			RHipMoment			LKneeMoment			RKneeMoment			LAnkleMoment			RAnkleMoment			LWaistMoment			RWaistMoment			LNeckMoment			RNeckMoment			LShoulderMoment			RShoulderMoment			LElbowMoment			RElbowMoment			LWristMoment			RWristMoment			LKNE			RKNE			LANK			RANK			LKJC			RKJC			LAJC			RAJC			LTHI			RTHI			LTIB			RTIB			P_ForcePlate1			P_ForcePlate2			P_ForcePlate3			CentreOfMass			CentreOfMassFloor			funktRKJC			funktLKJC			funktRHIP			funktLHIP			LHJC			RHJC			LHF		
		X1	Y1	Z1	X2	Y2	Z2	X3	Y3	Z3	X4	Y4	Z4	X5	Y5	Z5	X6	Y6	Z6	X7	Y7	Z7	X8	Y8	Z8	X9	Y9	Z9	X10	Y10	Z10	X11	Y11	Z11	X12	Y12	Z12	X13	Y13	Z13	X14	Y14	Z14	X15	Y15	Z15	X16	Y16	Z16	X17	Y17	Z17	X18	Y18	Z18	X19	Y19	Z19	X20	Y20	Z20	X21	Y21	Z21	X22	Y22	Z22	X23	Y23	Z23	X24	Y24	Z24	X25	Y25	Z25	X26	Y26	Z26	X27	Y27	Z27	X28	Y28	Z28	X29	Y29	Z29	X30	Y30	Z30	X31	Y31	Z31	X32	Y32	Z32	X33	Y33	Z33	X34	Y34	Z34	X35	Y35	Z35	X36	Y36	Z36	X37	Y37	Z37	X38	Y38	Z38	X39	Y39	Z39	X40	Y40	Z40	X41	Y41	Z41	X42	Y42	Z42	X43	Y43	Z43	X44	Y44	Z44	X45	Y45	Z45	X46	Y46	Z46	X47	Y47	Z47	X48	Y48	Z48	X49	Y49	Z49	X50	Y50	Z50	X51	Y51	Z51	X52	Y52	Z52	X53	Y53	Z53	X54	Y54	Z54	X55	Y55	Z55	X56	Y56	Z56	X57	Y57	Z57	X58	Y58	Z58	X59	Y59	Z59	X60	Y60	Z60	X61	Y61	Z61	X62	Y62	Z62	X63	Y63	Z63	X64	Y64	Z64	X65	Y65	Z65	X66	Y66	Z66	X67	Y67	Z67	X68	Y68	Z68	X69	Y69	Z69	X70	Y70	Z70	X71	Y71	Z71	X72	Y72	Z72	X73	Y73	Z73	X74	Y74	Z74	X75	Y75	Z75	X76	Y76	Z76	X77	Y77	Z77	X78	Y78	Z78	X79	Y79	Z79	X80	Y80	Z80	X81	Y81	Z81	X82	Y82	Z82	X83	Y83	Z83	X84	Y84	Z84	X85	Y85	Z85	X86	Y86	Z86	X87	Y87	Z87	X88	Y88	Z88	X89	Y89	Z89	X90	Y90	Z90	X91	Y91	Z91	X92	Y92	Z92	X93	Y93	Z93	X94	Y94	Z94	X95	Y95	Z95	X96	Y96	Z96	X97	Y97	Z97	X98	Y98	Z98	X99	Y99	Z99	X100	Y100	Z100	X101	Y101	Z101	X102	Y102	Z102	X103	Y103	Z103	X104	Y104	Z104	X105	Y105	Z105	X106	Y106	Z106	X107	Y107	Z107	X108	Y108	Z108	X109	Y109	Z109	X110	Y110	Z110	X111	Y111	Z111	X112	Y112	Z112	X113	Y113	Z113	X114	Y114	Z114	X115	Y115	Z115	X116	Y116	Z116	X117	Y117	Z117	X118	Y118	Z118	X119	Y119	Z119	X120	Y120	Z120	X121	Y121	Z121	X122	Y122	Z122	X123	Y123	Z123	X124	Y124	Z124	X125	Y125	Z125	X126	Y126	Z126	X127	Y127	Z127	X128	Y128	Z128	X129	Y129	Z129	X130	Y130	Z130	X131	Y131	Z131	X132	Y132	Z132	X133	Y133	Z133	X134	Y134	Z134	X135	Y135	Z135	X136	Y136	Z136	X137	Y137	Z137	X138	Y138	Z138	X139	Y139	Z139	X140	Y140	Z140	X141	Y141	Z141	X142	Y142	Z142	X143	Y143	Z143	X144	Y144	Z144	X145	Y145	Z145	X146	Y146	Z146	X147	Y147	Z147	X148	Y148	Z148	X149	Y149	Z149	X150	Y150	Z150	X151	Y151	Z151	X152	Y152	Z152	X153	Y153	Z153	X154	Y154	Z154	X155	Y155	Z155	X156	Y156	Z156	X157	Y157	Z157	X158	Y158	Z158	X159	Y159	Z159	X160	Y160	Z160	X161	Y161	Z161	X162	Y162	Z162	X163	Y163	Z163	X164	Y164	Z164	X165	Y165	Z165	X166	Y166	Z166	X167	Y167	Z167	X168	Y168	Z168	X169	Y169	Z169	X170	Y170	Z170	X171	Y171	Z171	X172	Y172	Z172	X173	Y173	Z173	X174	Y174	Z174	X175	Y175	Z175	X176	Y176	Z176	X177	Y177	Z177	X178	Y178	Z178	X179	Y179	Z179	X180	Y180	Z180	X181	Y181	Z181	X182	Y182	Z182	X183	Y183	Z183	X184	Y184	Z184	X185	Y185	Z185	X186	Y186	Z186	X187	Y187	Z187	X188	Y188	Z188	X189	Y189	Z189	X190	Y190	Z190	X191	Y191	Z191	X192	Y192	Z192	X193	Y193	Z193	X194	Y194	Z194	X195	Y195	Z195	X196	Y196	Z196	X197	Y197	Z197	X198	Y198	Z198	X199	Y199	Z199	X200	Y200	Z200	X201	Y201	Z201	X202	Y202	Z202	X203	Y203	Z203	X204	Y204	Z204	X205	Y205	Z205	X206	Y206	Z206	X207	Y207	Z207	X208	Y208	Z208	X209	Y209	Z209	X210	Y210	Z210	X211	Y211	Z211	X212	Y212	Z212	X213	Y213	Z213	X214	Y214	Z214	X215	Y215	Z215	X216	Y216	Z216	X217	Y217	Z217	X218	Y218	Z218	X219	Y219	Z219	X220	Y220	Z220	X221	Y221	Z221	X222	Y222	Z222	X223	Y223	Z223	X224	Y224	Z224	X225	Y225	Z225	X226	Y226	Z226	X227	Y227	Z227	X228	Y228	Z228	X229	Y229	Z229	X230	Y230	Z230	X231	Y231	Z231	

1	0.000000	-335.215240	1546.035278	1294.363403	-332.451660	1521.568481	1155.104248	-461.768189	1543.594238	1300.568604	-483.459045	1518.734863	1174.816528	-400.168274	1406.742798	1144.163696	-392.843811	1226.334717	1081.475464	-407.256531	1339.213623	1261.448975	-408.501648	1302.880127	1282.122925	-507.224823	1268.341675	1070.788330	-254.138565	1380.167480	1178.740356	-145.683411	1189.687866	1149.915283	-88.440147	1114.122803	1170.705200	-42.262817	1070.874146	1192.201538	46.998306	940.166748	1268.973145	20.218887	948.335754	1332.836304	75.866585	899.647705	1350.757202	-554.586548	1368.454956	1169.691162	-622.590454	1282.464722	1150.208740	-694.432983	1093.562134	1139.217896	-817.971130	952.600952	1195.115356	-843.447449	910.429504	1213.068970	-843.448853	936.044495	1278.960938	-901.895386	884.304016	1287.864990	-393.657929	971.290772	1076.193970	-253.928650	935.150635	1262.850464	-539.926147	934.579956	1254.609375	-205.634155	644.053955	1233.667603	-190.815140	553.321350	1153.420410	-234.716263	567.864990	1289.028442	-202.679092	258.333374	1177.902466	-187.957535	179.251678	1086.116089	-227.353439	178.826431	1222.772217	-275.403961	39.208061	1091.397583	-226.242188	38.916336	1252.127441	-583.239990	661.191956	1194.215698	-555.105591	589.222717	1097.266235	-582.083740	572.668152	1237.467041	-577.043030	267.570190	1152.906128	-555.372742	202.453247	1052.777954	-571.158813	182.567581	1192.776855	-495.296845	41.030640	1085.106567	-539.617981	40.050232	1246.190308	-394.858032	849.002625	1193.901733	-395.279053	846.044922	1208.717407	-382.268372	849.027771	1194.264526	-395.814331	972.516174	1218.532104	-393.418945	959.512878	1135.265991	-393.594360	958.280457	1141.439209	-387.124115	959.525391	1135.447388	-393.896790	1021.269592	1147.581299	-281.340942	470.011719	1216.868896	-274.391235	473.027374	1254.424194	-244.005646	474.586395	1209.592529	-331.911896	849.191711	1195.779297	-498.231140	474.163513	1204.173462	-505.273102	476.122803	1241.160278	-461.413849	470.424439	1211.381226	-457.804108	848.813721	1192.024292	-266.209930	45.362644	1149.465942	-248.162506	40.688496	1182.965210	-231.286453	49.501747	1131.228760	-280.142426	436.376038	1211.530029	-505.458588	50.412617	1141.620605	-521.057739	45.382046	1177.501465	-469.232941	47.529598	1156.965454	-498.803650	440.599213	1199.218750	-226.972244	49.253216	1252.824341	-227.912293	62.563797	1253.721680	-214.215988	50.413403	1248.978149	-266.030121	55.108627	1125.050171	-539.261108	50.215973	1247.118042	-538.798462	63.394825	1248.320679	-526.474793	49.460583	1250.477051	-505.144501	60.655373	1119.597900	-214.149124	47.677326	1294.878906	-214.446030	51.880665	1295.162354	-210.120850	48.043758	1293.664429	-226.482651	49.526894	1254.529053	-550.471375	47.128643	1289.097046	-550.325317	51.290394	1289.476929	-546.433594	46.890106	1290.157837	-539.697632	50.425781	1248.827759	-409.373383	1443.578491	1123.625610	-393.553284	1484.807129	1345.132080	-184.205627	1448.593506	1106.610596	-417.397492	1665.592529	1082.875488	-257.772736	1333.381714	1176.116455	-180.052536	1318.994385	1325.007202	-244.738388	1501.183472	1185.527344	-406.788025	1340.555420	1254.594849	-546.889648	1322.161987	1167.098267	-632.055054	1300.104248	1308.104370	-519.671997	1158.462524	1157.929565	-406.788025	1340.555420	1254.594727	-406.788055	1340.555420	1254.594727	-417.990143	1308.470215	1418.493530	-573.734253	1338.174927	1242.718384	-402.180633	1176.291626	1222.752930	-120.462402	1095.682251	1168.828735	-207.420776	1053.329224	911.821411	-341.804657	964.863831	1265.277832	-257.772736	1333.381714	1176.116455	29.280727	938.865906	1299.778809	36.074017	791.791565	1115.885010	-160.598618	826.642822	1382.518066	-109.980362	1084.705078	1177.995239	95.288429	834.353027	1391.580078	206.972534	934.746033	1425.570313	178.216507	782.336365	1272.733032	29.280685	938.865906	1299.778809	-662.381958	1077.705444	1148.720337	-502.874695	1018.197327	937.885132	-848.538452	1178.378174	979.468933	-546.889709	1322.161987	1167.098267	-838.523743	918.600098	1247.817627	-780.345398	752.978699	1085.314697	-1002.850647	1007.467529	1098.413452	-674.711914	1066.567993	1155.657104	-935.374329	826.264160	1335.891235	-1059.191650	921.003723	1299.059326	-904.517517	916.604614	1464.535522	-838.523682	918.600037	1247.817627	-0.434985	1.596296	-11.277627	0.434985	-1.596296	-11.277627	-4.214863	-16.980335	-2.623877	-2.072303	-14.930230	-4.680243	7.559450	-12.213317	-14.247216	6.213684	-9.164877	-13.320211	-3.085706	-16.179298	-13.015383	-3.078730	-11.531838	-11.056211	0.649250	10.774549	-5.619386	0.308063	8.266166	-3.376405	0.000000	0.000000	0.000000	0.000000	-0.000000	-0.000000	0.000000	0.000000	-9.243203	0.000000	0.000000	-8.680268	1.144939	-8.323764	21.336014	-1.144939	8.323764	21.336014	-1.160310	2.234796	0.230058	1.160310	-2.234796	0.230058	-29.162828	-29.470039	-6.112025	0.000000	0.000000	-35.138741	10.790724	123.647842	-1.708206	-26.538774	-39.992203	-7.760566	0.000000	-0.000000	-34.540653	8.174917	115.386795	-7.047674	1.577312	-3.838816	-10.970446	-1.577312	3.838816	-10.970446	2.035934	4.018959	-10.400718	-2.035934	-4.018959	-10.400718	0.000000	0.000000	0.000000	0.000000	0.000000	0.000000	0.000000	0.000000	0.000000	0.000000	0.000000	0.000000	0.000000	0.000000	0.000000	0.000000	0.000000	0.000000	0.000000	0.000000	0.000000	0.000000	0.000000	0.000000	0.000000	0.000000	0.000000	0.000000	0.000000	0.000000	0.000000	0.000000	0.000000	0.000000	0.000000	0.000000	0.000000	0.000000	0.000000	0.000000	0.000000	0.000000	0.000000	0.000000	0.000000	0.000000	0.000000	0.000000	-398.021027	1.304700	259.089996	-231.415008	1.697000	-251.317001	-396.987000	4.582600	-949.962036	0.000000	0.000000	0.000000	0.000000	0.000000	0.000000	0.000000	0.000000	0.000000	0.000000	0.000000	0.000000	0.000000	0.000000	0.000000	0.000000	0.000000	0.000000	0.000000	0.000000	0.000000	0.000000	0.000000	0.000000	0.000000	0.000000	0.000000	0.000000	0.000000	0.000000	0.000000	0.000000	0.000000	0.000000	0.000000	0.000000	0.000000	0.000000	0.000000	0.000000	0.000000	0.000000	0.000000	0.000000	0.000000	0.000000	0.000000	0.000000	0.000000	0.000000	0.000000	0.000000	0.000000	0.000000	0.000000	0.000000	0.000000	0.000000	0.000000	0.000000	0.000000	0.000000	0.000000	0.000000	0.000000	0.000000	0.000000	0.000000	0.000000	0.000000	0.000000	0.000000	0.000000	0.000000	0.000000	0.000000	0.000000	0.000000	0.000000	0.000000	0.000000	0.000000	0.000000	0.000000	0.000000	0.000000	0.000000	0.000000	0.000000	0.000000	0.000000	0.000000	0.000000	0.000000	0.000000	0.000000	0.000000	0.000000	0.000000	0.000000	0.000000	0.000000	0.000000	0.000000	0.000000	0.000000	0.000000	0.000000	0.000000	0.000000	0.000000	0.000000	0.000000	0.000000	-226.621307	480.055023	1205.936401	-552.194031	482.301239	1193.468384	-230.390106	46.346104	1130.305542	-541.792481	46.966717	1125.341431	-281.340912	470.011719	1216.868896	-498.231140	474.163513	1204.173462	-266.359741	49.567089	1150.133301	-505.386993	54.608173	1142.239868	-194.620575	673.325745	1184.495239	-588.469543	672.705810	1176.475586	-168.405762	253.286713	1125.786377	-610.808044	254.154922	1124.385254	-398.021027	1.304700	259.089996	-231.415008	1.697000	-251.317001	-396.987000	4.582600	-949.962036	-397.963440	934.591736	1233.036987	-397.963440	0.000000	1233.036987	0.000000	0.000000	0.000000	0.000000	0.000000	0.000000	0.000000	0.000000	0.000000	0.000000	0.000000	0.000000	-292.996498	850.884601	1189.240110	-496.348760	850.478833	1183.380464	0.000000	0.000000	0.000000	
2	0.006667	-335.195892	1546.025024	1294.439575	-332.452301	1521.566772	1155.179932	-461.751190	1543.584961	1300.667236	-483.456635	1518.731812	1174.912720	-400.166199	1406.737793	1144.246338	-392.846344	1226.334106	1081.546021	-407.244476	1339.201172	1261.530762	-408.488007	1302.866333	1282.199463	-507.231232	1268.338013	1070.880615	-254.134338	1380.157715	1178.802124	-145.689896	1189.673096	1149.962280	-88.446129	1114.105835	1170.743896	-42.269836	1070.854980	1192.235718	46.991718	940.142090	1268.998291	20.214693	948.307617	1332.862915	75.851624	899.610474	1350.782227	-554.581787	1368.448486	1169.781494	-622.586121	1282.460083	1150.294678	-694.430847	1093.564331	1139.292358	-817.990478	952.625183	1195.134766	-843.470947	910.450867	1213.088013	-843.476196	936.060669	1278.972534	-901.932190	884.326782	1287.863770	-393.658325	971.298889	1076.273071	-253.940064	935.131775	1262.930420	-539.942993	934.574768	1254.667725	-205.652573	644.047363	1233.734009	-190.822464	553.322815	1153.464111	-234.736160	567.850464	1289.071289	-202.684555	258.333435	1177.916748	-187.960144	179.259293	1086.125854	-227.360290	178.822311	1222.780884	-275.405060	39.210880	1091.393921	-226.243622	38.916164	1252.125732	-583.250793	661.190796	1194.244385	-555.104492	589.230591	1097.292969	-582.098022	572.661499	1237.490234	-577.044983	267.571350	1152.909058	-555.369141	202.459946	1052.783813	-571.161011	182.566177	1192.779663	-495.295624	41.035305	1085.105957	-539.622803	40.046974	1246.190552	-394.871124	848.998108	1193.961060	-395.293335	846.038696	1208.776367	-382.281494	849.022644	1194.324707	-395.823700	972.508850	1218.605713	-393.422760	959.515137	1135.338257	-393.598724	958.282043	1141.511353	-387.127930	959.527405	1135.520142	-393.899078	1021.270508	1147.660522	-281.349823	470.006195	1216.881348	-274.405212	473.016235	1254.437622	-244.014084	474.582703	1209.610718	-331.925201	849.184082	1195.843262	-498.240509	474.162872	1204.199463	-505.286652	476.119690	1241.185303	-461.424194	470.423798	1211.411133	-457.816956	848.812195	1192.078857	-266.214417	45.364468	1149.465210	-248.167984	40.689369	1182.964355	-231.290924	49.504379	1131.229248	-280.150971	436.371216	1211.541382	-505.456207	50.415012	1141.627563	-521.056824	45.382523	1177.507568	-469.231171	47.532093	1156.973877	-498.812073	440.598572	1199.243164	-226.973846	49.253014	1252.822876	-227.914139	62.563549	1253.720581	-214.217728	50.413563	1248.976440	-266.034973	55.111095	1125.049805	-539.266174	50.212673	1247.118896	-538.803833	63.391472	1248.322266	-526.480164	49.457302	1250.478882	-505.139832	60.659565	1119.601929	-214.149551	47.676273	1294.877075	-214.446503	51.879601	1295.160645	-210.121307	48.042797	1293.662476	-226.484329	49.526680	1254.527588	-550.479858	47.122929	1289.096802	-550.333862	51.284657	1289.476807	-546.442139	46.884392	1290.157837	-539.703125	50.421906	1248.828369	-409.377747	1443.578735	1123.708618	-393.528870	1484.794678	1345.215332	-184.212204	1448.594849	1106.664673	-417.407257	1665.595215	1082.972412	-257.769898	1333.372192	1176.175293	-180.027649	1318.971924	1325.056641	-244.730408	1501.175903	1185.596924	-406.776611	1340.543457	1254.676636	-546.884766	1322.155762	1167.184692	-632.044067	1300.086426	1308.195679	-519.666443	1158.454590	1158.001831	-406.776550	1340.543579	1254.676636	-406.776581	1340.543457	1254.676636	-417.965210	1308.444946	1418.576538	-573.726502	1338.163574	1242.813721	-402.171417	1176.279419	1222.821289	-120.469253	1095.666626	1168.868774	-207.444916	1053.328491	911.863892	-341.811829	964.852539	1265.325439	-257.769867	1333.372192	1176.175293	29.275198	938.839661	1299.804443	36.052608	791.772095	1115.904663	-160.603821	826.620606	1382.550049	-109.987083	1084.688721	1178.034302	95.261093	834.309631	1391.599976	206.961090	934.679810	1425.600342	178.183106	782.286743	1272.752808	29.275215	938.839722	1299.804443	-662.383118	1077.707031	1148.805054	-502.803467	1018.154846	938.042664	-848.467407	1178.361084	979.470154	-546.884766	1322.155762	1167.184692	-838.550049	918.618103	1247.833374	-780.304443	752.997437	1085.380249	-1002.803528	1007.463684	1098.364380	-674.714844	1066.570801	1155.736938	-935.426025	826.287170	1335.876099	-1059.220947	921.044434	1299.033325	-904.582031	916.606445	1464.532959	-838.549988	918.618042	1247.833374	-0.433324	1.600992	-11.284304	0.433324	-1.600992	-11.284304	-4.215846	-16.981941	-2.625053	-2.070809	-14.934791	-4.683635	7.562927	-12.209846	-14.245526	6.210404	-9.167250	-13.322927	-3.088751	-16.185806	-13.009259	-3.078870	-11.527836	-11.055033	0.648994	10.771530	-5.619727	0.307884	8.263988	-3.375848	0.000000	0.000000	-0.000000	0.000000	-0.000000	-0.000000	0.000000	0.000000	-9.243420	0.000000	0.000000	-8.680239	1.145630	-8.326385	21.337030	-1.145630	8.326385	21.337030	-1.161305	2.225348	0.232200	1.161305	-2.225348	0.232200	-29.160742	-29.469530	-6.114677	0.000000	0.000000	-35.139210	10.800082	123.647560	-1.706440	-26.540390	-40.022205	-7.762085	0.000000	0.000000	-34.533272	8.178162	115.406075	-7.047712	1.576526	-3.834118	-10.975013	-1.576526	3.834118	-10.975013	2.037298	4.026278	-10.397160	-2.037298	-4.026278	-10.397160	0.000000	0.000000	0.000000	0.000000	0.000000	0.000000	0.000000	0.000000	0.000000	0.000000	0.000000	0.000000	0.000000	0.000000	0.000000	0.000000	0.000000	0.000000	0.000000	0.000000	0.000000	0.000000	0.000000	0.000000	0.000000	0.000000	0.000000	0.000000	0.000000	0.000000	0.000000	0.000000	0.000000	0.000000	0.000000	0.000000	0.000000	0.000000	0.000000	0.000000	0.000000	0.000000	0.000000	0.000000	0.000000	0.000000	0.000000	0.000000	-398.021027	1.304700	259.089996	-231.415008	1.697000	-251.317001	-396.987000	4.582600	-949.962036	0.000000	0.000000	0.000000	0.000000	0.000000	0.000000	0.000000	0.000000	0.000000	0.000000	0.000000	0.000000	0.000000	0.000000	0.000000	0.000000	0.000000	0.000000	0.000000	0.000000	0.000000	0.000000	0.000000	0.000000	0.000000	0.000000	0.000000	0.000000	0.000000	0.000000	0.000000	0.000000	0.000000	0.000000	0.000000	0.000000	0.000000	0.000000	0.000000	0.000000	0.000000	0.000000	0.000000	0.000000	0.000000	0.000000	0.000000	0.000000	0.000000	0.000000	0.000000	0.000000	0.000000	0.000000	0.000000	0.000000	0.000000	0.000000	0.000000	0.000000	0.000000	0.000000	0.000000	0.000000	0.000000	0.000000	0.000000	0.000000	0.000000	0.000000	0.000000	0.000000	0.000000	0.000000	0.000000	0.000000	0.000000	0.000000	0.000000	0.000000	0.000000	0.000000	0.000000	0.000000	0.000000	0.000000	0.000000	0.000000	0.000000	0.000000	0.000000	0.000000	0.000000	0.000000	0.000000	0.000000	0.000000	0.000000	0.000000	0.000000	0.000000	0.000000	0.000000	0.000000	0.000000	0.000000	0.000000	0.000000	0.000000	0.000000	0.000000	0.000000	0.000000	0.000000	-226.629440	480.054810	1205.957520	-552.202271	482.300537	1193.488770	-230.394058	46.349133	1130.305786	-541.789123	46.968426	1125.346680	-281.349823	470.006195	1216.881226	-498.240540	474.162842	1204.199463	-266.364258	49.568844	1150.132690	-505.384735	54.610535	1142.247192	-194.630295	673.324646	1184.550415	-588.477783	672.704712	1176.504150	-168.412216	253.287582	1125.795410	-610.809143	254.155609	1124.396729	-398.021027	1.304700	259.089996	-231.415008	1.697000	-251.317001	-396.987000	4.582600	-949.962036	-397.963074	934.584228	1233.091309	-397.963074	0.000000	1233.091309	0.000000	0.000000	0.000000	0.000000	0.000000	0.000000	0.000000	0.000000	0.000000	0.000000	0.000000	0.000000	-293.007207	850.874066	1189.308203	-496.363023	850.478019	1183.433204	0.000000	0.000000	0.000000	
